<svg width="743" height="686" viewBox="0 0 743 686" fill="none" xmlns="http://www.w3.org/2000/svg">
<path d="M133 399.892C119.355 472.911 166.452 532.392 111.5 532.392C56.5477 532.392 0 474.175 0 399.892C7 263.892 111.5 263.892 160.5 263.892C169.5 263.893 151.5 300.893 133 399.892Z" fill="black"/>
<path d="M742.5 382.892C742.5 442.815 717.671 524.892 634 524.892C628.5 464.392 623 402.392 611 344.392C611 284.47 595 267.892 619 267.892C685 245.392 742.5 322.97 742.5 382.892Z" fill="black"/>
<path d="M375.5 0.392212C527.5 -4.50006 707 127.753 707 282.392C707 358.015 671.506 426.634 613.822 477.016C646.877 424.753 664 361.406 664 297.392C688.5 197.392 545.5 28.3921 381 36.8922C222.5 31.8921 93.5001 141.892 78.5 297.392C78.5 365.573 101.714 432.999 143.364 487.081C79.0858 437.535 38.5 367.299 38.5 287.892C38.5001 133.253 209.5 -2.50002 375.5 0.392212Z" fill="black"/>
<path d="M642.999 443.892C657.499 578.892 528.999 689.392 378.499 684.892C211.5 679.899 88.9995 545.892 113.999 443.892C113.999 317.143 232.5 169.892 387.5 178.892C539 165.392 642.999 317.143 642.999 443.892Z" fill="black"/>
<path d="M226.094 172.094C226.697 172.292 227.279 172.548 227.833 172.857L279 201.392L245.054 218.366C242.477 219.654 239.471 219.768 236.804 218.68L189.662 199.447C183.863 197.08 177.341 200.567 176.087 206.704L169.872 237.124C169.316 239.846 169.917 242.677 171.532 244.938L183.645 261.896C188.998 269.39 182.233 279.523 173.259 277.452L127.5 266.892L131.5 243.392L135.898 211.144C135.966 210.644 136.072 210.149 136.215 209.665L144.712 180.869C144.903 180.22 145.161 179.591 145.479 178.994L152.031 166.709C152.67 165.51 153.547 164.455 154.608 163.606L160.261 159.084C162.034 157.665 164.237 156.892 166.508 156.892H178.394C179.458 156.892 180.515 157.062 181.526 157.395L226.094 172.094Z" fill="black"/>
<path d="M525.828 183.954L474 213.068L507.798 230.09C510.387 231.394 513.415 231.51 516.097 230.408L559.49 212.575C566.296 209.778 573.689 215.041 573.275 222.387L571.599 252.137C571.533 253.298 571.266 254.439 570.808 255.509L557.706 286.117C555.519 291.226 557.918 297.139 563.046 299.28L616 321.392L621.395 259.598C621.465 258.797 621.438 257.991 621.315 257.197L616 222.892L612 189.392L608.163 172.98C607.766 171.284 606.934 169.721 605.747 168.446L597.966 160.081C596.075 158.048 593.422 156.892 590.645 156.892H579.481C577.852 156.892 576.247 157.291 574.806 158.052L525.828 183.954Z" fill="black"/>
<path d="M225 212.892L268.033 233.667C301.262 218.775 338.784 210.392 378.5 210.392C418.617 210.392 456.495 218.946 489.971 234.12L509 236.892L536.5 218.392L574.5 198.392L581 253.892L590.5 307.392L600.5 319.892L617 363.892L621 388.892L621.312 392.274C623.735 404.655 625 417.392 625 430.392C625 551.895 514.638 650.392 378.5 650.392C242.362 650.392 132 551.895 132 430.392C132 425.646 132.168 420.935 132.5 416.263V388.392L137.5 361.392L145.5 333.892L154.5 307.392L164.5 248.892L178 194.392L225 212.892Z" fill="#F7F7F6"/>
<path d="M234.411 319.766C235.761 316.617 238.171 314.039 241.222 312.481L260 302.892L263.803 301.444C275.172 297.112 287.236 294.892 299.403 294.892H326.905C333.918 294.892 340.881 296.076 347.5 298.392L353.747 300.365C355.884 301.04 357.827 302.22 359.412 303.805C362.03 306.422 363.5 309.972 363.5 313.673V315.031C363.5 316.264 363.301 317.489 362.911 318.659L362.477 319.961C361.849 321.847 360.536 323.428 358.799 324.393C357.619 325.048 356.292 325.392 354.942 325.392H349.096C347.037 325.392 344.984 325.184 342.967 324.77L336.25 323.392C329.767 322.062 323.165 321.392 316.547 321.392H310.417C299.219 321.392 288.1 323.273 277.524 326.957L251.875 335.891C249.972 336.554 247.971 336.892 245.955 336.892H242.794C240.045 336.892 237.408 335.8 235.463 333.856C232.466 330.858 231.595 326.337 233.265 322.441L234.411 319.766Z" fill="black"/>
<path d="M495.486 296.561C498.158 296.116 500.861 295.892 503.569 295.892H526.176C530.374 295.892 534.556 296.433 538.616 297.502C540.869 298.095 543.077 298.848 545.223 299.756L548.853 301.292C552.94 303.021 556.833 305.175 560.468 307.72L563.888 310.114C564.628 310.632 565.321 311.213 565.96 311.852C568.867 314.759 570.5 318.702 570.5 322.813V330.127C570.5 331.837 569.584 333.416 568.099 334.264C567.379 334.676 566.564 334.892 565.734 334.892H562.795C559.668 334.892 556.612 333.967 554.011 332.233L549 328.892L541.021 324.903C539.01 323.897 536.923 323.052 534.78 322.375C530.618 321.061 526.279 320.392 521.915 320.392H517.556C511.544 320.392 505.559 321.177 499.75 322.726L496.189 323.675C494.4 324.152 492.571 324.461 490.725 324.598L484.518 325.058C481.598 325.274 478.696 324.461 476.314 322.759L475.771 322.372C473.97 321.085 472.623 319.261 471.923 317.162C471.015 314.436 471.266 311.457 472.618 308.922L473.069 308.076C474.01 306.312 475.354 304.795 476.992 303.648L479.639 301.795C482.839 299.555 486.5 298.059 490.353 297.417L495.486 296.561Z" fill="black"/>
<path d="M382 408.392L404 403.392L421.5 397.892L429 388.392L429.5 376.392L428.5 370.392L423.5 364.892L411.5 357.892L402 351.892L396.5 349.392L394 346.892V340.892L395.5 333.392L400.5 329.892C404.811 328.566 409.291 327.871 413.8 327.828L459.5 327.392L471.5 330.392L477 332.892L482 337.892L484.5 340.892V344.392V350.392L479.5 355.392L475 358.892L472.5 360.392H469L464.5 365.392L460.5 370.892L459 382.892L456.5 388.392L454.5 395.892L467 396.892L482 400.892L503 411.892L512 420.392L519.5 428.892L519 438.392L511 449.892L497 477.392L490 493.892L484.5 511.392L479.5 558.892L469 584.392L461 595.892L449.5 604.892L432 611.892L420.5 614.392H408.5L396.5 613.392L385 610.892L360 598.892L336 578.892L322.5 564.392L311.5 548.892L298 521.892L292 504.892L289.5 487.392L290.5 470.892L298.5 453.892L315 436.892L333 424.892L356.5 415.392L382 408.392Z" fill="black"/>
<path d="M344 525.892L349.5 518.392L357.5 513.392L370 509.392H392L411 515.392L427 524.392L441 541.392L444 550.392L443 566.892L434.5 578.392L423.5 584.392L400 582.892L380.5 575.392L357.5 558.392L345.5 537.392L344 525.892Z" fill="#F8F7F7"/>
</svg>
